<svg version="1.1" xmlns="http://www.w3.org/2000/svg" xmlns:xlink="http://www.w3.org/1999/xlink" width="194.96901" height="176.46416" viewBox="0,0,194.96901,176.46416"><g transform="translate(-145.85316,-91.76791)"><g data-paper-data="{&quot;isPaintingLayer&quot;:true}" fill-rule="nonzero" stroke-linecap="butt" stroke-linejoin="miter" stroke-miterlimit="10" stroke-dasharray="" stroke-dashoffset="0" style="mix-blend-mode: normal"><path d="M200.70595,253.91286c-0.84911,0.07521 -1.71819,0.31361 -2.54166,0.13244c-1.5817,-0.34799 -8.90874,-3.55787 -10.17556,-4.57525c-2.21427,-1.77828 -3.27105,-5.18176 -5.81345,-6.85153c-1.24601,-0.81834 -2.79024,-1.12896 -4,-2c-5.06913,-3.6498 -9.15068,-9.28852 -13.97979,-13.30848c-1.23152,-1.02811 -3.86858,-3.09265 -4.68506,-4.4053c-0.55674,-0.89507 -0.46159,-2.09378 -1,-3c-0.54706,-0.92079 -1.77892,-1.36576 -2.18308,-2.35762c-0.37734,-0.92607 0.32873,-2.05558 0,-3c-0.61986,-1.78082 -3.24877,-2.27049 -4,-4c-0.42938,-0.98854 0.25862,-2.21006 -0.08303,-3.23225c-0.38099,-1.13986 -1.62155,-1.85929 -2,-3c-0.33067,-0.99669 0.24777,-2.14028 -0.04039,-3.15008c-0.40907,-1.43348 -1.60756,-2.56187 -2,-4c-0.77348,-2.83455 1.07413,-6.96823 0.12342,-9.61767c-0.31843,-0.88741 -1.67462,-1.11512 -2,-2c-0.89427,-2.43206 -0.26259,-7.31397 -0.1903,-9.95671c0.0361,-1.31993 -0.30401,-2.7323 0.1903,-3.95671c0.32454,-0.80389 3.24189,-3.47068 4.18308,-4.35762c0.42088,-1.31668 0.96434,-2.6003 1.26264,-3.95004c0.36495,-1.65126 -0.18822,-3.59557 0.72027,-5.02192c1.00989,-1.58554 3.22015,-1.99373 4.57697,-3.29484c3.07519,-2.94893 2.53566,-4.81725 5.22945,-8.24212c0.56611,-0.71976 1.79583,-0.77417 2.25797,-1.56472c0.66427,-1.13629 0.30801,-2.67015 0.90382,-3.84378c1.80122,-3.54809 5.99998,-5.96037 8.14739,-9.23003c2.17154,-3.30638 3.78645,-6.7236 6,-10c0.12284,-0.18182 3.94965,-3.99529 4.26034,-4.30599c4.42278,-4.42278 9.12978,-8.59651 12.74903,-13.70692c1.30023,-1.58713 2.21501,-3.59175 3.9007,-4.76139c0.76842,-0.53318 2.0788,0.70043 2.8037,0.10945c1.10003,-0.89682 0.63649,-3.04286 1.79685,-3.86014c1.57471,-1.10912 3.79586,-0.73015 5.61579,-1.3608c1.51514,-0.52504 2.78708,-1.66573 4.33425,-2.08718c3.02085,-0.82288 8.57179,-0.06525 11.56744,-0.06525c4.54767,0 9.87641,-0.74146 14.34675,0.02417c1.66776,0.28563 3.21612,1.0971 4.88343,1.38541c1.87705,0.32458 8.74785,0.22828 10.32282,0.69712c2.90416,0.86452 4.45508,4.19334 7.09091,5.68798c1.01355,0.57473 2.40463,-0.01962 3.46447,0.46446c0.94829,0.43314 1.36815,1.62707 2.26785,2.15377c1.51517,0.887 3.40649,1.04216 4.86386,2.02122c0.72952,0.49009 0.95743,1.47407 1.43615,2.2111c1.32609,0.6602 2.8927,0.97266 3.97826,1.98059c1.27333,1.18228 5.18894,7.84201 5.87048,9.51372c0.37549,0.921 -0.04205,2.12259 0.52975,2.93638c0.5962,0.84851 1.92642,0.87828 2.6633,1.60796c1.18428,1.17271 1.82846,2.81455 3,4c4.4538,4.50668 11.66867,6.16777 16.74374,9.78803c1.19314,0.85112 1.99678,2.15711 3.1232,3.09475c5.29244,4.40547 9.98612,9.5966 13.5568,15.64384c0.72323,1.22485 1.09896,2.64311 1.88634,3.82774c1.27621,1.92009 3.35009,3.33124 4.25818,5.45039c0.63746,1.48759 0.79665,3.13729 1.19498,4.70592c0.01493,2.63496 -0.44322,5.30527 -0.01355,7.90501c0.26315,1.59223 1.16499,3.0194 1.5505,4.58651c0.60703,2.46764 0.47973,4.3387 0.48179,6.81394c0.00133,1.6107 0.06771,7.6231 -0.37338,8.31433c-0.99942,1.56623 -3.26053,1.79057 -4.8123,2.81229c-2.89342,1.9051 -4.84584,3.83911 -7.55497,5.99485c-0.5077,0.404 -1.35131,0.51892 -1.59056,1.12203c-0.60519,1.5256 -0.10477,3.36649 -0.78287,4.8611c-2.13798,4.71233 -8.9708,6.37822 -11.71075,10.5983c-0.45522,0.70113 -0.0582,1.73387 -0.46447,2.46446c-0.42293,0.76054 -1.62159,0.96519 -1.90101,1.78933c-0.46681,1.37684 0.648,3.16477 -0.18308,4.35762c-1.06209,1.52443 -3.25702,1.7959 -4.8123,2.81229c-1.24466,0.8134 -2.38293,1.77903 -3.57439,2.66854c-1.69223,2.13188 -4.03765,5.29424 -6.11978,7.1088c-0.85625,0.74621 -2.04878,1.06118 -2.85239,1.8638c-0.79287,0.7919 -1.13437,1.94216 -1.83441,2.81721c-1.96681,2.45851 -5.60903,6.17811 -7.96611,7.94847c-1.36345,1.02407 -7.12818,3.84216 -8.84822,4.70213c-5.64441,2.82202 -10.88987,5.69307 -17.15273,7.03251c-5.45493,1.16664 -11.4289,-0.77199 -16.9663,-0.76808c-1.39378,0.00098 -7.39047,0.03674 -7.95671,-0.1903c-1.31263,-0.52631 -1.76457,-2.31172 -3,-3c-0.59756,-0.33292 -1.36219,0.12687 -2.04329,0.1903c-1.31891,-0.06343 -2.75953,0.36674 -3.95671,-0.1903c-1.45111,-0.67518 -2.19619,-2.36049 -3.50507,-3.28159c-1.2191,-0.85792 -2.76477,-1.16547 -4,-2c-0.27139,-0.18336 -0.51766,-0.36759 -0.74452,-0.55161c-0.79374,-0.01633 -1.39205,-0.04245 -1.51816,-0.08376c-2.17736,-0.71329 -3.54532,-3.13768 -5.67991,-3.90013l-0.59563,0.0074c0,0 -0.42873,0 -0.93111,-0.17755zM218.40384,258.0904c0.33837,0.47019 0.6954,0.91482 1.18993,1.1903c0.59758,0.33289 1.3622,-0.12687 2.04329,-0.1903c1.3189,0.06343 2.75647,-0.36012 3.95671,0.1903c1.28548,0.58952 1.71761,2.40378 3,3c1.82756,0.84968 4.02786,-0.19166 6.04329,-0.1903c5.02931,0.0034 11.045,2.0085 15.93097,0.87644c1.56031,-0.36151 2.92142,-1.34052 4.4577,-1.79339c1.51535,-0.4467 3.17451,-0.3404 4.65462,-0.89275c2.46231,-0.91889 4.48803,-2.74837 6.83768,-3.92587c1.06707,-0.53475 7.14091,-3.51871 8.08071,-4.22681c3.79525,-2.85956 6.03174,-7.06304 9.27056,-10.30539c0.89614,-0.89711 2.18743,-1.30799 3.14761,-2.1362c1.56162,-1.34698 4.82078,-5.57632 5.88022,-6.8912c1.47521,-1.11049 2.83781,-2.38896 4.42561,-3.33146c0.97508,-0.5788 2.58876,-0.22487 3.1877,-1.18771c0.64212,-1.03223 -0.56126,-2.48704 -0.18308,-3.64238c0.31612,-0.96571 1.61045,-1.31968 2.09899,-2.21067c0.40191,-0.73299 -0.00575,-1.77331 0.46447,-2.46447c2.54332,-3.73834 6.74733,-6.13542 10.00151,-9.15866c0.54844,-0.50952 1.43728,-0.75492 1.71481,-1.45016c0.62734,-1.57155 0.12913,-3.47722 0.86112,-5.00284c0.53115,-1.10704 1.79808,-1.67342 2.72723,-2.47612c1.56011,-1.3478 6.38718,-5.38665 8.12724,-6.40699c0.97816,-0.57358 2.52117,-0.27036 3.1877,-1.18771c0.53128,-0.7312 -0.31415,-1.78378 -0.37338,-2.68567c-0.06553,-0.99785 -0.00088,-2 0,-3c0.00363,-4.147 -1.31504,-6.51022 -1.96772,-10.59955c-0.07803,-0.48893 -0.02465,-6.49907 -0.01355,-8.09499c-0.9774,-3.99944 -2.41181,-4.64986 -4.54683,-7.84369c-0.86642,-1.2961 -1.32066,-2.82997 -2.11366,-4.17226c-3.28985,-5.56863 -7.58691,-10.30441 -12.4432,-14.35616c-1.04647,-0.8731 -1.76835,-2.11235 -2.8768,-2.90525c-5.3105,-3.79871 -12.51561,-5.52171 -17.25626,-10.21197c-1.18479,-1.1722 -1.82662,-2.81637 -3,-4c-0.96347,-0.97188 -2.55709,-1.26731 -3.3367,-2.39204c-0.78535,-1.133 -0.55849,-2.7171 -1.08722,-3.99024c-1.97636,-4.75889 -4.03812,-7.32144 -8.53428,-9.57907c-0.42636,-0.69166 -0.60127,-1.62695 -1.27909,-2.07499c-1.31637,-0.87012 -3.05304,-0.90597 -4.4209,-1.69269c-0.7315,-0.42073 -0.96108,-1.50337 -1.73215,-1.84623c-1.06465,-0.4734 -2.45451,0.11655 -3.46446,-0.46447c-0.89484,-0.51479 -4.43039,-4.89267 -6.40258,-5.40905c-3.11308,-0.81511 -6.46708,0.00998 -9.63952,-0.52972c-1.61804,-0.27526 -3.1168,-1.06928 -4.73181,-1.3618c-4.18876,-0.7587 -9.3779,0.02417 -13.65325,0.02417c-2.36817,0 -7.92835,-0.81598 -10.43256,-0.06525c-1.38104,0.41401 -2.48559,1.51596 -3.85995,1.95166c-1.34497,0.42639 -3.05663,-0.23999 -4.19001,0.60036c-1.2557,0.93104 -0.97474,3.17312 -2.20315,4.13986c-0.83774,0.65929 -2.29523,-0.46025 -3.1963,0.10944c-1.0874,0.68749 -1.39953,2.15908 -2.0993,3.23861c-3.27531,4.58562 -7.27795,8.32007 -11.25097,12.29308c-1.73603,1.73604 -4.39416,3.64535 -5.73966,5.69401c-2.17154,3.30638 -3.78645,6.7236 -6,10c-1.5647,2.31601 -4.32144,4.9304 -6.09475,7.12319c-0.50487,0.62431 -1.4035,0.9263 -1.75786,1.64678c-0.63234,1.2857 -0.35791,2.92828 -1.09618,4.15622c-0.57946,0.9638 -1.95835,1.19902 -2.65452,2.08222c-2.1044,2.66977 -3.07519,6.22024 -5.53756,8.56394c-1.05483,1.00401 -2.93109,1.0436 -3.74354,2.25217c-0.64962,0.96635 0.13645,2.35486 -0.11745,3.49125c-0.42545,1.90425 -1.26643,3.6912 -1.89964,5.5368c-1.21889,1.26775 -3.17477,2.00515 -3.81692,3.64238c-0.24977,0.63681 0.16451,1.35973 0.1903,2.04329c0.07541,1.99858 0.07541,4.00142 0,6c-0.02579,0.68356 -0.46975,1.41893 -0.1903,2.04329c0.38517,0.86055 1.71686,1.10071 2,2c1.01871,3.23557 -0.82341,7.2351 0.12342,10.38233c0.42946,1.42751 1.58999,2.56678 2,4c0.26131,0.91342 -0.34216,1.94905 -0.04039,2.84992c0.38174,1.13961 1.62094,1.85949 2,3c0.29111,0.87589 -0.38602,1.8959 -0.08303,2.76775c0.61898,1.78113 3.24431,2.27244 4,4c0.40077,0.91618 -0.36446,2.06878 0,3c0.29755,0.76025 1.39341,0.94441 1.81692,1.64238c0.54682,0.90117 0.47611,2.08532 1,3c0.26623,0.46482 3.46269,3.05143 3.63273,3.19286c4.69923,3.92003 8.74272,9.58167 13.70242,13.09337c1.21662,0.86142 2.76477,1.16547 4,2c0.13035,0.08806 4.31662,4.24794 4.47158,4.44314c0.66386,0.83623 0.88805,2.02991 1.71497,2.70533c0.4896,0.3999 7.38962,3.33371 7.82444,3.42475c0.74055,0.15504 1.51516,0.04619 2.28294,-0.02703c0.06667,-0.00799 0.12213,-0.01245 0.16327,-0.01494c0.46699,-0.0406 0.93037,-0.06011 1.38091,0.0092l2.10057,0.01994c1.30462,0.44703 2.72149,0.64822 3.91388,1.3411c1.17058,0.68021 1.93449,1.88372 2.83938,2.91207c0.94693,-0.09351 1.9099,-0.28545 2.84628,-0.28545c3.33334,0 6.66667,0 10,0c0,0 2.5,0 2.5,2.5c0,2.5 -2.5,2.5 -2.5,2.5c-2.07774,0 -4.15548,0 -6.23323,0z" fill="#000000" stroke="none" stroke-width="0.5"/><path d="M214.02765,255.07511c0,0 -1.70374,-0.18931 -2.13286,-1.66522c-0.04074,0.00436 -0.08144,0.00855 -0.12211,0.01257c-0.90489,-1.02836 -1.67102,-2.23279 -2.84161,-2.913c-1.19239,-0.69288 -2.61165,-0.8952 -3.91627,-1.34223l-2.10163,-0.0205c-0.45054,-0.06931 -0.91459,-0.05017 -1.38158,-0.00957c-0.04114,0.00249 -0.09668,0.0069 -0.16335,0.01489c-0.76778,0.07322 -1.54344,0.18145 -2.284,0.02641c-0.43482,-0.09104 -7.33916,-3.02772 -7.82875,-3.42762c-0.82692,-0.67542 -1.05257,-1.87024 -1.71643,-2.70647c-0.15497,-0.1952 -4.34418,-4.35763 -4.47452,-4.4457c-1.23523,-0.83453 -2.78523,-1.14042 -4.00185,-2.00185c-4.9597,-3.5117 -9.00999,-9.18228 -13.70922,-13.10231c-0.17004,-0.14142 -3.3678,-2.73035 -3.63403,-3.19518c-0.52389,-0.91468 -0.454,-2.10045 -1.00081,-3.00162c-0.42352,-0.69797 -1.51994,-0.88331 -1.81748,-1.64356c-0.36446,-0.93122 0.40014,-2.08528 -0.00063,-3.00146c-0.75569,-1.72756 -3.38207,-2.22164 -4.00105,-4.00277c-0.30299,-0.87185 0.37368,-1.89328 0.08257,-2.76917c-0.37906,-1.14051 -1.6188,-1.86227 -2.00054,-3.00188c-0.30177,-0.90087 0.30132,-1.93802 0.04001,-2.85144c-0.41001,-1.43322 -1.57104,-2.57489 -2.0005,-4.0024c-0.94683,-3.14723 0.89457,-7.15257 -0.12414,-10.38814c-0.28314,-0.89929 -1.6149,-1.14064 -2.00006,-2.00118c-0.27945,-0.62436 0.16448,-1.36087 0.19027,-2.04443c0.07541,-1.99858 0.07547,-4.00478 0.00005,-6.00336c-0.02579,-0.68356 -0.44001,-1.40761 -0.19023,-2.04442c0.64216,-1.63723 2.59826,-2.37689 3.81715,-3.64464c0.63321,-1.8456 1.47468,-3.63587 1.90014,-5.54012c0.2539,-1.13639 -0.53177,-2.52687 0.11786,-3.49322c0.81245,-1.20856 2.68915,-1.24994 3.74398,-2.25395c2.46237,-2.3437 3.43509,-5.89993 5.53949,-8.5697c0.69617,-0.8832 2.07578,-1.12014 2.65524,-2.08393c0.73827,-1.22794 0.465,-2.87293 1.09734,-4.15863c0.35435,-0.72048 1.25366,-1.02375 1.75853,-1.64805c1.77331,-2.1928 4.53324,-4.81224 6.09794,-7.12824c2.21355,-3.2764 3.8332,-6.69928 6.00474,-10.00566c1.3455,-2.04866 4.00737,-3.96146 5.74341,-5.69749c3.97302,-3.97302 7.98393,-7.71308 11.25924,-12.2987c0.69977,-1.07954 1.01367,-2.55205 2.10107,-3.23954c0.90107,-0.56969 2.36013,0.54911 3.19787,-0.11018c1.22841,-0.96675 0.94943,-3.20966 2.20513,-4.1407c1.13338,-0.84034 2.8473,-0.17481 4.19226,-0.6012c1.37436,-0.4357 2.48127,-1.53839 3.86231,-1.9524c2.50421,-0.75073 8.0702,0.06393 10.43838,0.06393c4.27535,0 9.47261,-0.78352 13.66137,-0.02482c1.61502,0.29252 3.11666,1.08662 4.73471,1.36189c3.17244,0.5397 6.53227,-0.28471 9.64535,0.5304c1.97219,0.51638 5.51226,4.89528 6.40709,5.41007c1.00995,0.58101 2.40192,-0.0083 3.46657,0.4651c0.77107,0.34286 1.002,1.42596 1.7335,1.84669c1.36786,0.78672 3.10736,0.82368 4.42374,1.6938c0.67782,0.44804 0.85392,1.38385 1.28028,2.07551c4.49616,2.25763 6.56504,4.82415 8.5414,9.58304c0.52873,1.27314 0.30372,2.85854 1.08906,3.99153c0.77961,1.12474 2.37555,1.42198 3.33902,2.39386c1.17338,1.18363 1.81785,2.83016 3.00264,4.00236c4.74065,4.69026 11.95387,6.42338 17.26437,10.22209c1.10846,0.79291 1.83162,2.03439 2.87808,2.90749c4.8563,4.05174 9.15753,8.79793 12.44738,14.36656c0.793,1.34229 1.24788,2.8788 2.11431,4.1749c2.13502,3.19383 3.57026,3.84912 4.54765,7.84856c-0.0111,1.59592 -0.06416,7.61068 0.01387,8.09962c0.65268,4.08933 1.97113,6.45852 1.9675,10.60551c-0.00088,1 -0.06572,2.0038 -0.00019,3.00165c0.05923,0.90189 0.90445,1.9559 0.37317,2.68711c-0.66653,0.91735 -2.2097,0.61506 -3.18786,1.18864c-1.74005,1.02034 -6.5682,5.06387 -8.12831,6.41167c-0.92915,0.80271 -2.19665,1.37097 -2.7278,2.47801c-0.73199,1.52562 -0.23485,3.43425 -0.86219,5.0058c-0.27753,0.69525 -1.16685,0.9418 -1.71529,1.45132c-3.25418,3.02324 -7.46207,5.42771 -10.00539,9.16604c-0.47022,0.69116 -0.0634,1.73276 -0.46531,2.46576c-0.48854,0.89099 -1.78404,1.24659 -2.10016,2.21231c-0.37818,1.15534 0.82408,2.61159 0.18196,3.64382c-0.59895,0.96284 -2.21386,0.61039 -3.18894,1.18918c-1.5878,0.9425 -2.95289,2.22364 -4.42809,3.33413c-1.05944,1.31488 -4.32307,5.54817 -5.88468,6.89515c-0.96017,0.82821 -2.25349,1.24059 -3.14962,2.1377c-3.23882,3.24235 -5.48264,7.45012 -9.27789,10.30968c-0.9398,0.70809 -7.01887,3.69419 -8.08594,4.22894c-2.34965,1.1775 -4.37987,3.0083 -6.84218,3.92719c-1.48012,0.55236 -3.14208,0.44665 -4.65743,0.89335c-1.53629,0.45287 -2.90018,1.4323 -4.46049,1.79381c-4.88596,1.13206 -10.91123,-0.87278 -15.94055,-0.87618c-2.01543,-0.00136 -4.21933,1.0396 -6.04689,0.18992c-1.28239,-0.59622 -1.71659,-2.41082 -3.00208,-3.00034c-0.09389,-0.04306 -0.18924,-0.08016 -0.28589,-0.112c-0.30493,0.13244 -0.64141,0.20587 -0.99505,0.20587c-0.45588,0 -0.88326,-0.12203 -1.25127,-0.33519c-0.48012,0.03465 -0.96104,0.07292 -1.42686,0.05052c-0.68109,0.06343 -1.44687,0.5229 -2.04445,0.19001c-0.49453,-0.27549 -0.82546,-0.81664 -1.16383,-1.28683c0.21704,0 0.43403,-0.00001 0.65099,-0.00002c-1.32845,-0.23872 -1.7431,-1.30916 -1.87253,-1.95412c-0.66216,-0.02813 -1.25765,-0.31382 -1.68886,-0.75946c-0.48777,-0.13035 -0.98557,-0.21552 -1.47928,-0.25355z" fill="#9c9c9c" stroke="none" stroke-width="0.5"/><path d="M187.13706,127.5904c0,-1.38071 1.11929,-2.5 2.5,-2.5c1.38071,0 2.5,1.11929 2.5,2.5c0,1.38071 -1.11929,2.5 -2.5,2.5c-1.38071,0 -2.5,-1.11929 -2.5,-2.5z" fill="#5c5c5c" stroke="none" stroke-width="0.5"/><path d="M242.13706,137.5904c0,-1.38071 1.11929,-2.5 2.5,-2.5c1.38071,0 2.5,1.11929 2.5,2.5c0,1.38071 -1.11929,2.5 -2.5,2.5c-1.38071,0 -2.5,-1.11929 -2.5,-2.5z" fill="#5c5c5c" stroke="none" stroke-width="0.5"/><path d="M195.13706,193.5904c0,-1.38071 1.11929,-2.5 2.5,-2.5c1.38071,0 2.5,1.11929 2.5,2.5c0,1.38071 -1.11929,2.5 -2.5,2.5c-1.38071,0 -2.5,-1.11929 -2.5,-2.5z" fill="#5c5c5c" stroke="none" stroke-width="0.5"/><path d="M295.13706,178.5904c0,-1.38071 1.11929,-2.5 2.5,-2.5c1.38071,0 2.5,1.11929 2.5,2.5c0,1.38071 -1.11929,2.5 -2.5,2.5c-1.38071,0 -2.5,-1.11929 -2.5,-2.5z" fill="#5c5c5c" stroke="none" stroke-width="0.5"/><path d="M243.13706,218.5904c0,-1.38071 1.11929,-2.5 2.5,-2.5c1.38071,0 2.5,1.11929 2.5,2.5c0,1.38071 -1.11929,2.5 -2.5,2.5c-1.38071,0 -2.5,-1.11929 -2.5,-2.5z" fill="#5c5c5c" stroke="none" stroke-width="0.5"/><path d="M170.13706,156.5904c0,-1.38071 1.11929,-2.5 2.5,-2.5c1.38071,0 2.5,1.11929 2.5,2.5c0,1.38071 -1.11929,2.5 -2.5,2.5c-1.38071,0 -2.5,-1.11929 -2.5,-2.5z" fill="#5c5c5c" stroke="none" stroke-width="0.5"/><path d="M205.13706,231.5904c0,-1.38071 1.11929,-2.5 2.5,-2.5c1.38071,0 2.5,1.11929 2.5,2.5c0,1.38071 -1.11929,2.5 -2.5,2.5c-1.38071,0 -2.5,-1.11929 -2.5,-2.5z" fill="#5c5c5c" stroke="none" stroke-width="0.5"/><path d="M247.13706,190.5904c0,-1.38071 1.11929,-2.5 2.5,-2.5c1.38071,0 2.5,1.11929 2.5,2.5c0,1.38071 -1.11929,2.5 -2.5,2.5c-1.38071,0 -2.5,-1.11929 -2.5,-2.5z" fill="#5c5c5c" stroke="none" stroke-width="0.5"/><path d="M226.13706,113.5904c0,-1.38071 1.11929,-2.5 2.5,-2.5c1.38071,0 2.5,1.11929 2.5,2.5c0,1.38071 -1.11929,2.5 -2.5,2.5c-1.38071,0 -2.5,-1.11929 -2.5,-2.5z" fill="#5c5c5c" stroke="none" stroke-width="0.5"/><path d="M270.13706,222.5904c0,-1.38071 1.11929,-2.5 2.5,-2.5c1.38071,0 2.5,1.11929 2.5,2.5c0,1.38071 -1.11929,2.5 -2.5,2.5c-1.38071,0 -2.5,-1.11929 -2.5,-2.5z" fill="#5c5c5c" stroke="none" stroke-width="0.5"/><path d="M275.13706,138.5904c0,-1.38071 1.11929,-2.5 2.5,-2.5c1.38071,0 2.5,1.11929 2.5,2.5c0,1.38071 -1.11929,2.5 -2.5,2.5c-1.38071,0 -2.5,-1.11929 -2.5,-2.5z" fill="#5c5c5c" stroke="none" stroke-width="0.5"/><path d="M175.13706,208.5904c0,-1.38071 1.11929,-2.5 2.5,-2.5c1.38071,0 2.5,1.11929 2.5,2.5c0,1.38071 -1.11929,2.5 -2.5,2.5c-1.38071,0 -2.5,-1.11929 -2.5,-2.5z" fill="#5c5c5c" stroke="none" stroke-width="0.5"/><path d="M216.13706,157.5904c0,-1.38071 1.11929,-2.5 2.5,-2.5c1.38071,0 2.5,1.11929 2.5,2.5c0,1.38071 -1.11929,2.5 -2.5,2.5c-1.38071,0 -2.5,-1.11929 -2.5,-2.5z" fill="#5c5c5c" stroke="none" stroke-width="0.5"/><text transform="translate(150.80445,175.57216) scale(0.87768,0.87768)" font-size="40" xml:space="preserve" fill="#ff0000" fill-rule="nonzero" stroke="#d00000" stroke-width="1" stroke-linecap="butt" stroke-linejoin="miter" stroke-miterlimit="10" stroke-dasharray="" stroke-dashoffset="0" font-family="Pixel" font-weight="normal" text-anchor="start" style="mix-blend-mode: normal"><tspan x="0" dy="0">BOULDER </tspan><tspan x="0" dy="46.15px">   CLASH!</tspan><tspan x="0" dy="46.15px"> </tspan></text></g></g></svg>