<svg version="1.1" xmlns="http://www.w3.org/2000/svg" xmlns:xlink="http://www.w3.org/1999/xlink" width="798.11954" height="135" viewBox="0,0,798.11954,135"><g transform="translate(149.41366,-346)"><g data-paper-data="{&quot;isPaintingLayer&quot;:true}" fill-rule="nonzero" stroke-linejoin="miter" stroke-miterlimit="10" stroke-dasharray="" stroke-dashoffset="0" style="mix-blend-mode: normal"><path d="M-71.5,480v-131.88235h624.76471v131.88235z" fill="#5eb91e" stroke="#5eb91e" stroke-width="2" stroke-linecap="butt"/><path d="M-47.47059,348.11765l695.17647,-1.11765" fill="none" stroke="#5eb91e" stroke-width="2" stroke-linecap="round"/><path d="M129.41588,435.85294l59.23529,-88.29412" fill="none" stroke="#5eb91e" stroke-width="2" stroke-linecap="round"/><path d="M243.41588,443.67647l45.82353,-93.88235" fill="none" stroke="#5eb91e" stroke-width="2" stroke-linecap="round"/><path d="M384.23941,348.67647l-36.88235,95" fill="none" stroke="#5eb91e" stroke-width="2" stroke-linecap="round"/><path d="M455.76882,450.38235l27.94118,-100.58824" fill="none" stroke="#5eb91e" stroke-width="2" stroke-linecap="round"/><path d="M74.65117,348.67647l-51.41176,78.23529" fill="none" stroke="#5eb91e" stroke-width="2" stroke-linecap="round"/><path d="M-14.76059,349.79412l-48.05882,71.52941" fill="none" stroke="#5eb91e" stroke-width="2" stroke-linecap="round"/><path d="M65.18301,395.24545c-2.44947,0.50009 -2.94956,-1.94938 -2.94956,-1.94938l-0.20608,-1.02406c-1.68734,-6.63126 -3.2859,-12.87608 -4.25019,-19.68406c-0.39229,-2.76962 -1.19548,-5.4695 -1.97233,-8.15672c-0.06295,-0.21775 0.15505,-0.76622 -0.05368,-0.67787c-1.33239,0.564 -2.1289,1.96211 -3.24563,2.88205c-3.16392,2.60636 -5.78481,5.76522 -8.51874,8.79815c-1.89104,2.4698 -6.90469,9.96619 -10.60832,9.52732c-1.9015,-0.22532 -2.25082,-3.09958 -3.31318,-4.69264c-1.23227,-1.84785 -2.43181,-3.7239 -3.48164,-5.68116c-0.60371,-1.12553 -0.97651,-2.36617 -1.59236,-3.48511c-0.33007,-0.5997 -0.55824,-1.77231 -1.23064,-1.64401c-0.69704,0.133 -0.34845,1.39328 -0.69643,2.01172c-1.18131,2.09948 -2.78661,3.93361 -4.06445,5.97577c-4.67489,7.47111 -9.27138,15.06754 -12.37186,23.31208c0,0 -0.88003,2.33999 -3.22002,1.45996c-2.33999,-0.88003 -1.45996,-3.22002 -1.45996,-3.22002c3.67584,-9.77364 9.31288,-19.29667 15.20511,-27.95055c0.96156,-1.41223 4.74529,-6.47425 5.90455,-6.53929c5.49973,-0.30856 7.58266,7.05634 9.71292,10.53648c0.5805,0.94835 1.35668,1.81127 1.70452,2.86738c0.22534,0.68418 -0.76236,2.25751 -0.0486,2.16045c0.86869,-0.11813 0.73361,-1.60296 1.2354,-2.32184c1.35509,-1.94133 3.04015,-3.63206 4.47927,-5.51195c3.65044,-4.05598 7.36543,-8.94259 12.20678,-11.68334c1.27111,-0.71959 2.56827,-1.99195 4.01109,-1.76436c3.73101,0.58852 4.92164,5.89495 5.59745,8.43567c1.09659,4.12262 1.13382,8.58096 1.9189,12.77266c0.71108,3.79659 2.04324,7.31055 2.99677,11.03688l0.26029,1.26024c0,0 0.50009,2.44947 -1.94938,2.94956z" fill="#4c9518" stroke="none" stroke-width="0.5" stroke-linecap="butt"/><path d="M199.67135,374.31182c-1.76777,1.76777 -3.53553,0 -3.53553,0l-1.23223,-1.26777c-3.03717,-4.04956 -6.6181,-7.96704 -8.34746,-12.64011c-0.00306,-0.00827 -0.00611,-0.01655 -0.00916,-0.02486c-3.75822,8.48494 -8.59121,15.74256 -14.14338,23.16496c0,0 -1.5,2 -3.5,0.5c-2,-1.5 -0.5,-3.5 -0.5,-3.5c5.40261,-7.18251 10.07921,-14.20783 13.68993,-22.45629l1.8242,-4.5605c0.35452,-0.94948 1.26971,-1.62559 2.34282,-1.62559c0.91163,0 1.7093,0.48795 2.14607,1.21692l1.62002,2.60535l-0.02878,0.0179c0.04607,0.05734 0.09157,0.11519 0.13647,0.17356c1.14675,1.49075 0.87338,3.73577 1.8959,5.31433c0.59204,0.91399 1.66228,1.42649 2.34389,2.2758c1.61033,2.00653 2.96583,4.45366 4.52949,6.53853l0.76777,0.73223c0,0 1.76777,1.76777 0,3.53553z" fill="#4c9518" stroke="none" stroke-width="0.5" stroke-linecap="butt"/><path d="M338.31423,410.28624c-2.5,0 -2.5,-2.5 -2.5,-2.5v-0.22842c0.01072,-9.60338 -5.47215,-17.69597 -8.06502,-26.72445c-0.7889,-2.74698 -1.45166,-5.52904 -2.1211,-8.30755c-0.16334,-0.67793 -0.41543,-1.33815 -0.626,-2.0056c-2.8518,5.32951 -4.40881,10.77753 -6.16032,16.59889c-1.05109,3.49344 -2.31397,8.31171 -5.83358,10.3748c-3.06306,1.79547 -6.26501,-1.32028 -8.1908,-2.82322c-0.14487,-0.11306 -2.85628,-3.04873 -4.11555,-2.73999c-0.46624,0.11431 -0.61229,0.73974 -0.90611,1.11936c-0.8615,1.1131 -1.75022,2.20686 -2.55956,3.35844c-3.53024,5.023 -7.21397,9.95716 -10.42269,15.19627c0,0 -1.30575,2.1319 -3.43765,0.82615c-2.1319,-1.30575 -0.82615,-3.43765 -0.82615,-3.43765c3.2508,-5.30738 6.96487,-10.34547 10.564,-15.41408c0.93507,-1.31684 4.17663,-6.04948 6.3281,-6.48711c4.04602,-0.82299 5.80112,1.50864 8.47643,3.65625c0.79336,0.63687 1.55846,1.31049 2.37877,1.91226c0.18479,0.13556 0.47112,0.46141 0.62336,0.29009c2.83129,-3.18584 3.21606,-8.24227 4.40228,-12.11103c1.49965,-4.89096 3.37588,-9.35144 5.88493,-13.79153c1.21506,-1.41504 1.78179,-4.16461 3.64518,-4.24511c3.85638,-0.16658 5.0685,6.32255 5.62727,8.51489c1.27645,5.0082 2.22686,10.1489 4.30066,14.92016c3.07188,7.06759 6.02559,13.50191 6.03355,21.31972v0.22842c0,0 0,2.5 -2.5,2.5z" fill="#4c9518" stroke="none" stroke-width="0.5" stroke-linecap="butt"/><path d="M450.90701,379.67987c-2.08013,1.38675 -3.46688,-0.69338 -3.46688,-0.69338l-1.15594,-1.76872c-0.57187,-1.16111 -1.47695,-2.56285 -1.36248,-3.7994c-0.00816,0.00854 -0.01644,0.01612 -0.02481,0.02263c-0.86815,0.67489 -1.93028,1.05698 -2.85915,1.64551c-1.25721,0.79655 -2.20996,2.60993 -3.69471,2.50694c-2.33269,-0.16181 -5.39271,-5.92006 -6.46651,-7.70747c-0.79642,-1.32569 -1.90642,-2.51816 -2.56157,-3.9044c-0.55657,0.96833 -1.50513,1.87236 -1.62035,1.97465c-2.77459,2.46302 -6.17709,4.85586 -9.38811,6.78724c0,0 -2.14373,1.28624 -3.42997,-0.85749c-1.28624,-2.14373 0.85749,-3.42997 0.85749,-3.42997c2.97874,-1.78242 6.016,-3.98244 8.61189,-6.21276c1.93648,-1.66377 1.42769,-4.96075 5.2134,-5.1432c2.57313,-0.12401 5.51079,6.38789 6.60468,8.21346c0.85383,1.42494 2.15828,2.60256 2.79452,4.13115c1.28466,-2.59637 6.92861,-4.06743 8.9485,-2.92503c1.17456,0.6643 0.93352,2.53408 1.47793,3.76878c0.40646,0.92182 0.91426,1.79554 1.37138,2.69331l0.84406,1.23128c0,0 1.38675,2.08013 -0.69338,3.46688z" fill="#4c9518" stroke="none" stroke-width="0.5" stroke-linecap="butt"/><path d="M526.26201,456.00601v-109.14039h105.10511v109.14039z" fill="#5eb91e" stroke="none" stroke-width="none" stroke-linecap="butt"/><path d="M-149.41366,450v-103.13438h117.11712v103.13438z" fill="#5eb91e" stroke="none" stroke-width="0" stroke-linecap="butt"/></g></g></svg>